<svg width="19" height="20" viewBox="0 0 19 20" fill="none" xmlns="http://www.w3.org/2000/svg">
<path d="M2.66663 20H16.6666C17.1971 20 17.7058 19.7893 18.0808 19.4142C18.4559 19.0392 18.6666 18.5305 18.6666 18V7.00003C18.6666 6.73481 18.5613 6.48046 18.3737 6.29292C18.1862 6.10538 17.9318 6.00003 17.6666 6.00003H14.6666V5.22303C14.6666 2.61403 12.7636 0.278027 10.1666 0.0250272C9.4715 -0.0440606 8.76961 0.0331281 8.10611 0.251627C7.44261 0.470127 6.8322 0.825097 6.31414 1.2937C5.79609 1.76231 5.38186 2.33417 5.09812 2.9725C4.81437 3.61082 4.66739 4.30148 4.66663 5.00003V6.00003H1.66663C1.40141 6.00003 1.14706 6.10538 0.959519 6.29292C0.771983 6.48046 0.666626 6.73481 0.666626 7.00003V18C0.666626 18.5305 0.87734 19.0392 1.25241 19.4142C1.62749 19.7893 2.13619 20 2.66663 20ZM14.6666 8.00003V10H12.6666V8.00003H14.6666ZM6.66663 5.00003C6.66663 3.34603 8.01263 2.00003 9.66663 2.00003C11.3206 2.00003 12.6666 3.34603 12.6666 5.00003V6.00003H6.66663V5.00003ZM4.66663 8.00003H6.66663V10H4.66663V8.00003Z" fill="black" fill-opacity="0.3"/>
</svg>
