<svg width="19" height="20" viewBox="0 0 19 20" fill="none" xmlns="http://www.w3.org/2000/svg">
<path d="M8.05 0.532953C8.45577 0.190975 8.96935 0.00341797 9.5 0.00341797C10.0307 0.00341797 10.5442 0.190975 10.95 0.532953L17.7 6.22795C18.208 6.65495 18.5 7.28395 18.5 7.94795V17.75C18.5 18.2141 18.3156 18.6592 17.9874 18.9874C17.6592 19.3156 17.2141 19.5 16.75 19.5H13.75C13.2859 19.5 12.8408 19.3156 12.5126 18.9874C12.1844 18.6592 12 18.2141 12 17.75V12.75C12 12.551 11.921 12.3603 11.7803 12.2196C11.6397 12.079 11.4489 12 11.25 12H7.75C7.55109 12 7.36032 12.079 7.21967 12.2196C7.07902 12.3603 7 12.551 7 12.75V17.75C7 18.2141 6.81563 18.6592 6.48744 18.9874C6.15925 19.3156 5.71413 19.5 5.25 19.5H2.25C2.02019 19.5 1.79262 19.4547 1.5803 19.3667C1.36798 19.2788 1.17507 19.1499 1.01256 18.9874C0.850061 18.8249 0.721157 18.632 0.633211 18.4196C0.545265 18.2073 0.5 17.9798 0.5 17.75V7.94695C0.5 7.28395 0.792 6.65495 1.3 6.22695L8.05 0.532953Z" fill="#D45858"/>
</svg>
