<svg width="128" height="110" viewBox="0 0 128 110" fill="none" xmlns="http://www.w3.org/2000/svg">
<rect x="1.7926" y="87.806" width="51.1462" height="15.3608" fill="#E1621E"/>
<rect x="0.168945" y="87.806" width="54.3936" height="4.85077" fill="#FF742A"/>
<path fill-rule="evenodd" clip-rule="evenodd" d="M24.2048 60.4381C24.2048 63.4433 23.3003 65.7739 21.5068 67.4605C19.6979 69.1318 17.3831 69.9751 14.5471 69.9751C11.6651 69.9751 9.33501 69.1471 7.55677 67.4605C5.77853 65.7739 4.8894 63.4433 4.8894 60.4381C4.8894 57.4789 5.77853 55.1636 7.55677 53.477C9.33501 51.8057 11.6651 50.9624 14.5471 50.9624C17.3831 50.9624 19.7132 51.7904 21.5068 53.477C23.3003 55.1636 24.2048 57.4789 24.2048 60.4381ZM12.1571 60.4379C12.1571 61.6339 12.387 62.5232 12.8467 63.1058C13.3065 63.6885 13.8736 63.9798 14.548 63.9798C15.2223 63.9798 15.7894 63.6885 16.2492 63.1058C16.709 62.5232 16.9389 61.6339 16.9389 60.4379C16.9389 59.288 16.709 58.414 16.2492 57.862C15.7894 57.2947 15.2223 57.0187 14.548 57.0187C13.8736 57.0187 13.3065 57.31 12.8467 57.862C12.387 58.414 12.1571 59.2726 12.1571 60.4379Z" fill="#FF742A"/>
<path d="M9.8269 69.9753H14.5474L15.1911 50.9779H9.8269V69.9753Z" fill="#FF742A"/>
<path fill-rule="evenodd" clip-rule="evenodd" d="M42.448 69.684C44.0576 70.0674 45.4526 70.8033 46.6177 71.892C48.4112 73.5632 49.3157 75.8938 49.331 78.8531C49.331 81.8583 48.4266 84.1889 46.633 85.8755C44.8241 87.5468 42.5093 88.3901 39.6733 88.3901C36.7913 88.3901 34.4612 87.5621 32.683 85.8755C32.0545 85.2775 31.5333 84.6029 31.1347 83.8516C30.3835 82.4563 30.0156 80.8003 30.0156 78.8531C30.0156 75.8938 30.9047 73.5786 32.683 71.892C34.4612 70.2207 36.7913 69.3774 39.6733 69.3774C40.6544 69.3774 41.5895 69.4847 42.448 69.684ZM39.6725 82.3948C40.3469 82.3948 40.914 82.1035 41.3738 81.5208C41.8335 80.9382 42.0634 80.0489 42.0634 78.8529C42.0634 77.703 41.8335 76.8443 41.3738 76.277C40.914 75.7097 40.3469 75.4337 39.6725 75.4337C38.9982 75.4337 38.4311 75.725 37.9713 76.277C37.5115 76.829 37.2816 77.6876 37.2816 78.8529C37.2816 80.0489 37.5115 80.9382 37.9713 81.5208C38.4311 82.1035 38.9982 82.3948 39.6725 82.3948Z" fill="#FF742A"/>
<path d="M34.9369 69.3774H39.6574L40.1325 88.3748H34.9369V69.3774Z" fill="#FF742A"/>
<path d="M33.3268 66.2341L42.7393 52.9252L36.6074 49L12.4325 83.8515C12.3252 84.0049 12.2332 84.1735 12.1412 84.3268L17.9359 88.3134L33.3268 66.2341Z" fill="#FF742A"/>
<path d="M13.2291 88.2979H17.9507L29.5706 68.1658L36.5916 49.0151H31.87L13.2291 88.2979Z" fill="#FF742A"/>
<path fill-rule="evenodd" clip-rule="evenodd" d="M9.82681 50.9778C12.6628 50.9778 14.9929 51.8058 16.7865 53.4924C18.5801 55.1636 19.4845 57.4789 19.4998 60.4535C19.4998 63.4587 18.5954 65.7893 16.8018 67.4759C15.2995 68.8865 13.4293 69.6992 11.1912 69.9292C10.7466 69.9752 10.302 69.9905 9.84214 69.9905C6.96017 69.9905 4.63005 69.1472 2.85181 67.4759C1.07357 65.7893 0.184448 63.4587 0.184448 60.4535C0.184448 57.4942 1.07357 55.1636 2.85181 53.4924C3.54165 52.8484 4.30813 52.3271 5.15126 51.9284C6.50028 51.2998 8.0639 50.9778 9.82681 50.9778ZM9.82569 63.9798C10.5 63.9798 11.0671 63.6885 11.5269 63.1059C11.9867 62.5232 12.2166 61.6339 12.2166 60.4379C12.2166 59.288 11.9867 58.4293 11.5269 57.862C11.0671 57.2947 10.5 57.0187 9.82569 57.0187C9.15133 57.0187 8.58426 57.31 8.12447 57.862C7.66468 58.414 7.43478 59.2726 7.43478 60.4379C7.43478 61.6339 7.66468 62.5232 8.12447 63.1059C8.58426 63.6885 9.15133 63.9798 9.82569 63.9798Z" fill="#FFDE55"/>
<path fill-rule="evenodd" clip-rule="evenodd" d="M37.7254 69.684C39.335 70.0674 40.73 70.8033 41.8951 71.892C43.6886 73.5632 44.5931 75.8938 44.6237 78.8531C44.6237 81.8583 43.7193 84.2042 41.9257 85.8755C40.1168 87.5468 37.802 88.3901 34.966 88.3901C33.0652 88.3901 31.4096 88.0221 29.9839 87.2861C29.2481 86.9028 28.5736 86.4275 27.9757 85.8602C27.3472 85.2775 26.826 84.6029 26.4274 83.8516C25.6763 82.4563 25.3083 80.8003 25.3083 78.8531C25.3083 75.8938 26.1975 73.5786 27.9757 71.892C29.7386 70.2207 32.0687 69.3774 34.9507 69.3774C35.9318 69.3774 36.8669 69.4847 37.7254 69.684ZM34.9499 82.3948C35.6243 82.3948 36.1913 82.1035 36.6511 81.5208C37.1109 80.9382 37.3408 80.0489 37.3408 78.8529C37.3408 77.703 37.1109 76.8443 36.6511 76.277C36.1913 75.7097 35.6243 75.4337 34.9499 75.4337C34.2756 75.4337 33.7085 75.7097 33.2487 76.277C32.7889 76.829 32.559 77.6876 32.559 78.8529C32.559 80.0489 32.7889 80.9382 33.2487 81.5208C33.7085 82.1035 34.2756 82.3948 34.9499 82.3948Z" fill="#FFDE55"/>
<path d="M28.6026 66.2341L38.015 52.9252L31.8832 49L7.70826 83.8515C7.60095 84.0049 7.50897 84.1735 7.41699 84.3268L13.2116 88.3134L28.6026 66.2341Z" fill="#FFDE55"/>
<path d="M11.1757 69.8986C10.7464 69.9446 10.2865 69.9599 9.82664 69.9599C6.94466 69.9599 4.61455 69.1166 2.83631 67.4453C1.05807 65.7587 0.168945 63.4281 0.168945 60.4229C0.168945 57.4636 1.05807 55.1484 2.83631 53.4618C3.52614 52.8178 4.29263 52.2965 5.13576 51.8978C-2.32979 57.3563 1.99318 65.2834 2.36109 65.8967C2.77499 66.6174 4.46126 69.5766 11.1757 69.8986Z" fill="white"/>
<path d="M13.2294 88.2979L8.27795 84.1273L32.0849 49.9658L38.0175 52.925L31.8703 49.0151L7.43481 84.3113" fill="white"/>
<path d="M29.9689 87.2861C29.2331 86.9181 28.5739 86.4428 27.9607 85.8602C27.3322 85.2622 26.8263 84.6029 26.4124 83.8516C25.6612 82.4563 25.2933 80.8003 25.2933 78.8531C25.2933 75.8938 26.1825 73.5786 27.9607 71.892C29.7389 70.2054 32.0691 69.3774 34.9357 69.3774C30.3981 69.6534 25.8912 72.1066 25.8912 79.6657C25.8912 83.5296 27.9607 85.8908 29.9689 87.2861Z" fill="white"/>
<path d="M122.273 45.4674L118.051 101.457H83.0716L82.7577 97.848L78.2466 45.4674H122.273Z" fill="url(#paint0_linear)"/>
<path d="M102.672 35.1221H98.4505V19.0604C98.4505 18.38 98.1206 17.7409 97.5692 17.3519L87.2893 10.0898L89.7102 6.59998L99.9894 13.8614C101.669 15.0471 102.672 16.991 102.672 19.0604V35.1221Z" fill="url(#paint1_linear)"/>
<path d="M117.448 35.7315L116.846 36.3384L100.562 35.1233L84.2779 36.3384L83.6744 35.7315L86.1113 30.4057C86.8328 28.8289 88.3953 27.8184 90.1175 27.8184H111.007C112.727 27.8184 114.291 28.8282 115.013 30.4057L117.448 35.7315Z" fill="white"/>
<rect x="98.4515" y="27.8184" width="4.22086" height="7.30415" fill="#DBAFD5"/>
<path d="M125.037 38.1418C124.836 36.42 123.39 35.1221 121.672 35.1221H100.561H79.4504C77.7323 35.1221 76.2858 36.42 76.0851 38.1418L75.4149 43.8867C75.317 44.7283 75.9684 45.4676 76.808 45.4676H100.56H124.313C125.152 45.4676 125.804 44.7283 125.706 43.8867L125.037 38.1418Z" fill="url(#paint2_linear)"/>
<path opacity="0.17" d="M122.273 45.4674L118.052 101.457H83.0722L82.7583 97.848C102.214 91.3848 106.206 59.9271 107.008 45.4674H122.273Z" fill="#8E198E"/>
<path d="M104.566 82.0913V82.0941C104.527 83.3267 104.452 84.5384 104.351 85.7101C104.103 86.9694 103.606 88.366 102.615 88.6253C102.615 88.6253 103.726 90.5174 102.996 94.8811H102.997C102.468 97.4417 102.011 99.0233 102.011 99.0233H93.8765L99.9064 62.3358C101.424 64.3793 102.495 66.7563 103.227 69.2994C103.227 69.3008 103.23 69.3099 103.235 69.3246C103.238 69.3358 103.24 69.3463 103.244 69.3569C103.287 69.5089 103.329 69.661 103.37 69.8145C103.686 71.0513 104.354 74.3148 103.587 77.4129C103.587 77.4129 104.399 78.6687 104.566 82.0913Z" fill="#704E5A"/>
<path d="M100.872 93.3767L100.065 94.9913C97.8954 99.3291 93.4947 102.066 88.6877 102.066H51.4916C46.6846 102.066 42.2846 99.3291 40.1144 94.9913L39.8908 94.5463L39.3075 93.3767C38.9415 92.6444 38.7582 91.8441 38.7582 91.0368C38.7582 90.4825 38.8464 89.9219 39.0228 89.3879C39.3547 88.3753 40.2901 87.6976 41.3415 87.6976H98.8371C99.8885 87.6976 100.824 88.3753 101.156 89.3879C101.59 90.7018 101.489 92.1384 100.872 93.3767Z" fill="#FFA73E"/>
<path d="M70.0904 80.8559H39.4499C38.3985 80.8559 37.5464 81.7157 37.5464 82.7767V85.776C37.5464 86.837 38.3985 87.6968 39.4499 87.6968H70.0911H100.732C101.784 87.6968 102.636 86.837 102.636 85.776V82.7767C102.636 81.7157 101.784 80.8559 100.732 80.8559H70.0904Z" fill="#BC5B57"/>
<path d="M98.5667 76.0671L89.0743 74.6985L70.0901 78.1197L51.106 74.6985L41.6135 76.0671C36.1892 78.8036 34.1551 82.9087 39.5795 82.2248C45.0038 81.5408 43.6476 80.8562 50.4275 82.9087C57.2074 84.9613 58.5637 81.5401 63.988 82.2248C65.6582 82.4357 66.8783 82.6459 67.7672 82.8366C69.3019 83.1659 70.8783 83.1659 72.4131 82.8366C73.302 82.6459 74.5221 82.435 76.1923 82.2248C81.6166 81.5408 82.9722 84.9613 89.7528 82.9087C96.5327 80.8562 95.1771 81.5401 100.601 82.2248C106.025 82.9087 103.991 78.8036 98.5667 76.0671Z" fill="#92C919"/>
<path d="M70.0899 71.2776H41.1494C40.2827 71.2776 39.58 71.9868 39.58 72.8613V76.5348C39.58 77.4094 40.2827 78.1185 41.1494 78.1185H70.0906H99.0318C99.8985 78.1185 100.601 77.4094 100.601 76.5348V72.8613C100.601 71.9868 99.8985 71.2776 99.0318 71.2776H70.0899Z" fill="#9B4E4E"/>
<path d="M101.646 67.0066C101.646 67.9443 101.4 68.8749 100.906 69.7032C100.492 70.4005 99.7407 70.8301 98.9268 70.8301H40.5228C39.7089 70.8301 38.9555 70.4005 38.5416 69.7032C37.6332 68.1776 37.552 66.2876 38.3381 64.6948L38.3798 64.6107C38.5048 64.3584 38.643 64.0928 38.7909 63.8153C38.7909 63.8153 38.7957 63.8062 38.8068 63.7873C42.0478 57.7361 50.7285 46.2 69.7244 46.2C72.9307 46.2 75.8439 46.5287 78.4856 47.1054C78.4905 47.1075 78.4926 47.1075 78.4974 47.1075C84.7509 48.4698 89.4899 51.2175 93.0198 54.2666C97.292 57.9407 99.8073 62.0648 101.109 64.6941C101.467 65.425 101.646 66.2134 101.646 67.0066Z" fill="#F5A14F"/>
<path d="M102.011 67.453C102.011 68.3907 101.768 69.3213 101.273 70.1489C100.859 70.8469 100.107 71.2778 99.2927 71.2778H40.8888C40.0749 71.2778 39.3228 70.8469 38.9089 70.1489C38.0005 68.6233 37.9193 66.7347 38.7054 65.1405C38.7193 65.1131 38.7325 65.0858 38.7464 65.0585L38.9026 65.1201C54.1444 68.9653 94.9746 69.8069 93.3878 54.7137C97.6593 58.3878 100.175 62.5133 101.477 65.1405C101.835 65.8728 102.011 66.659 102.011 67.453Z" fill="url(#paint3_linear)"/>
<path d="M100.872 93.3775L100.065 94.9921C99.8131 95.4959 99.529 95.9787 99.2193 96.4385C96.8658 99.9283 92.9359 102.065 88.6894 102.065H51.4932C47.6696 102.065 44.105 100.334 41.7147 97.4462C41.0973 96.7019 40.5591 95.8806 40.1147 94.9921L39.8925 94.5464C55.2752 94.936 59.087 90.6669 59.9009 87.697H98.838C99.8901 87.697 100.826 88.3761 101.157 89.388C101.592 90.7019 101.489 92.1392 100.872 93.3775Z" fill="url(#paint4_linear)"/>
<path d="M99.6815 96.4385C97.328 99.9283 93.3981 102.065 89.1515 102.065H51.4929C47.6693 102.065 44.1047 100.334 41.7144 97.4462C61.2902 99.2093 93.0259 96.9563 99.6815 96.4385Z" fill="#704E5A"/>
<path d="M62.2552 54.3321H61.049C60.883 54.3321 60.7476 54.1957 60.7476 54.0285C60.7476 53.8613 60.883 53.7249 61.049 53.7249H62.2552C62.4212 53.7249 62.5566 53.8613 62.5566 54.0285C62.5566 54.1957 62.4212 54.3321 62.2552 54.3321Z" fill="#FFE4A6"/>
<path d="M58.1039 50.3365L57.0594 50.9448C56.9157 51.0282 56.7302 50.9784 56.6476 50.8333C56.565 50.6883 56.6143 50.5012 56.758 50.4178L57.8025 49.8095C57.9462 49.7261 58.1316 49.7759 58.2143 49.9209C58.2969 50.066 58.2476 50.2531 58.1039 50.3365Z" fill="#FFE4A6"/>
<path d="M53.5797 58.2484L52.5352 57.6401C52.3915 57.5567 52.3422 57.3696 52.4248 57.2245C52.5075 57.0795 52.6929 57.0297 52.8366 57.1131L53.8811 57.7214C54.0248 57.8048 54.0741 57.9919 53.9915 58.1369C53.9089 58.282 53.7234 58.3318 53.5797 58.2484Z" fill="#FFE4A6"/>
<path d="M69.4923 61.0267H68.286C68.12 61.0267 67.9846 60.8903 67.9846 60.7231C67.9846 60.5559 68.12 60.4194 68.286 60.4194H69.4923C69.6582 60.4194 69.7937 60.5559 69.7937 60.7231C69.7944 60.8903 69.6582 61.0267 69.4923 61.0267Z" fill="#FFE4A6"/>
<path d="M72.582 54.7054L71.9278 53.683C71.8375 53.5421 71.8785 53.3529 72.0174 53.2625C72.157 53.1714 72.3445 53.2128 72.434 53.3529L73.0882 54.3753C73.1785 54.5162 73.1375 54.7054 72.9986 54.7958C72.8597 54.8869 72.6722 54.8463 72.582 54.7054Z" fill="#FFE4A6"/>
<path d="M71.3275 49.4059L70.1267 49.5208C69.9615 49.5369 69.8135 49.4129 69.7983 49.2468C69.7823 49.08 69.9052 48.9308 70.0698 48.9153L71.2705 48.8004C71.4358 48.7843 71.5837 48.9083 71.599 49.0744C71.615 49.2405 71.4927 49.3898 71.3275 49.4059Z" fill="#FFE4A6"/>
<path d="M84.5234 55.0215L83.3283 54.8568C83.1637 54.8344 83.0477 54.6802 83.0706 54.5141C83.0929 54.348 83.2456 54.231 83.4102 54.2541L84.6054 54.4188C84.7699 54.4412 84.8859 54.5954 84.863 54.7615C84.8401 54.9269 84.6873 55.0439 84.5234 55.0215Z" fill="#FFE4A6"/>
<path d="M43.621 87.9371L46.6266 99.0226H40.389L43.621 87.9371Z" fill="#704E5A"/>
<path d="M43.621 88.0004V95.1785C43.621 95.7412 43.5446 96.2871 43.4016 96.8021C43.3127 97.1252 43.1981 97.437 43.0606 97.7356C42.1057 99.8028 40.0293 101.235 37.6196 101.235H27.8917C25.482 101.235 23.4063 99.8028 22.4514 97.7356C22.3139 97.437 22.1993 97.1252 22.1104 96.8021C21.9674 96.2871 21.891 95.7412 21.891 95.1785V88.0004C21.891 86.6592 22.9681 85.5723 24.2973 85.5723H41.2147C42.5439 85.5723 43.621 86.6592 43.621 88.0004Z" fill="url(#paint5_linear)"/>
<path d="M43.0608 97.7356C42.106 99.8029 40.0296 101.235 37.6198 101.235H27.892C25.4822 101.235 23.4065 99.8029 22.4517 97.7356H43.0608Z" fill="#704E5A"/>
<path d="M121.999 104.5H23.7743C22.3374 104.5 20.9694 103.88 20.0145 102.796L18.2721 100.818C17.6596 100.122 18.1485 99.0226 19.0714 99.0226H126.929C127.881 99.0226 128.358 100.184 127.685 100.864L125.555 103.013C124.612 103.965 123.333 104.5 121.999 104.5Z" fill="url(#paint6_linear)"/>
<path d="M23.7537 85.7354V88.5273C23.7537 88.9744 24.1127 89.3367 24.5558 89.3367C24.9988 89.3367 25.3578 88.9744 25.3578 88.5273V87.2371C25.3578 86.9793 25.5648 86.7704 25.8203 86.7704C26.0759 86.7704 26.2828 86.9793 26.2828 87.2371V91.5525C26.2828 92.3899 26.9558 93.069 27.7856 93.069C28.6155 93.069 29.2884 92.3899 29.2884 91.5525V85.7347C29.2884 85.2582 28.9051 84.8713 28.4329 84.8713H24.6092C24.137 84.872 23.7537 85.2589 23.7537 85.7354Z" fill="#FFA700"/>
<path d="M78.8516 47.5517C51.6216 44.6169 39.6812 63.4151 39.1729 64.2336C42.4138 58.1824 51.0945 46.6463 70.0905 46.6463C73.296 46.647 76.2093 46.9757 78.8516 47.5517Z" fill="#F9C287"/>
<path d="M93.8765 96.8526C98.4091 96.5695 99.796 95.636 100.952 93.3032C102.108 90.9703 101.646 96.8021 101.646 96.8021L98.9529 97.8105L93.8765 96.8526Z" fill="#704E5A"/>
<path d="M45.9259 96.4385C46.1641 97.2689 46.6141 97.8519 49.0475 97.9101C51.4809 97.9683 45.2391 98.435 45.2391 98.435L45.9259 96.4385Z" fill="#704E5A"/>
<path fill-rule="evenodd" clip-rule="evenodd" d="M51.723 71.278C43.4123 71.278 65.7577 80.6799 67.9045 80.6799C70.0512 80.6799 81.0132 71.2766 81.0132 71.2766C81.0132 71.2766 60.0336 71.278 51.723 71.278Z" fill="#FFEC69"/>
<path fill-rule="evenodd" clip-rule="evenodd" d="M44.3337 69.9425C38.8191 69.9411 37.5822 70.7335 36.7348 75.4687C35.8874 80.2039 36.2014 82.0358 40.0316 77.8004C43.8618 73.5649 45.7936 70.1127 44.3337 69.9425Z" fill="#FFEC69"/>
<defs>
<linearGradient id="paint0_linear" x1="78.2469" y1="101.457" x2="122.272" y2="101.457" gradientUnits="userSpaceOnUse">
<stop offset="0.064" stop-color="#AF63FF"/>
<stop offset="0.9987" stop-color="#7157EE"/>
</linearGradient>
<linearGradient id="paint1_linear" x1="87.2892" y1="35.1223" x2="102.672" y2="35.1223" gradientUnits="userSpaceOnUse">
<stop offset="0.064" stop-color="#AF63FF"/>
<stop offset="0.9987" stop-color="#7157EE"/>
</linearGradient>
<linearGradient id="paint2_linear" x1="75.4062" y1="45.4678" x2="125.717" y2="45.4678" gradientUnits="userSpaceOnUse">
<stop offset="0.0798" stop-color="white"/>
<stop offset="1" stop-color="#E0CFDC"/>
</linearGradient>
<linearGradient id="paint3_linear" x1="38.1667" y1="71.2776" x2="102.011" y2="71.2776" gradientUnits="userSpaceOnUse">
<stop stop-color="#F5A14F"/>
<stop offset="1" stop-color="#E57800"/>
</linearGradient>
<linearGradient id="paint4_linear" x1="188.606" y1="95.9956" x2="176.325" y2="48.3993" gradientUnits="userSpaceOnUse">
<stop stop-color="#E57800"/>
<stop offset="1" stop-color="#F5A14F"/>
</linearGradient>
<linearGradient id="paint5_linear" x1="6.25728" y1="102.131" x2="39.5564" y2="132.332" gradientUnits="userSpaceOnUse">
<stop offset="0.0798" stop-color="white"/>
<stop offset="1" stop-color="#E0CFDC"/>
</linearGradient>
<linearGradient id="paint6_linear" x1="-58.7363" y1="101.108" x2="-58.3539" y2="113.641" gradientUnits="userSpaceOnUse">
<stop offset="0.0798" stop-color="white"/>
<stop offset="1" stop-color="#E0CFDC"/>
</linearGradient>
</defs>
</svg>
