<svg width="15" height="15" viewBox="0 0 15 15" fill="none" xmlns="http://www.w3.org/2000/svg">
<path fill-rule="evenodd" clip-rule="evenodd" d="M6.44792 0.43604L5.31792 1.56504C5.22667 1.65632 5.10298 1.70774 4.97392 1.70804H3.19592C2.37392 1.70804 1.70792 2.37404 1.70792 3.19604V4.97404C1.70792 5.10404 1.65592 5.22704 1.56492 5.31904L0.434918 6.44804C0.155971 6.72708 -0.000732422 7.10548 -0.000732422 7.50004C-0.000732422 7.8946 0.155971 8.273 0.434918 8.55204L1.56492 9.68204C1.6562 9.77328 1.70762 9.89697 1.70792 10.026V11.804C1.70792 12.626 2.37392 13.292 3.19592 13.292H4.97392C5.10392 13.292 5.22692 13.344 5.31892 13.435L6.44792 14.565C6.72696 14.844 7.10536 15.0007 7.49992 15.0007C7.89447 15.0007 8.27288 14.844 8.55192 14.565L9.68192 13.435C9.77316 13.3438 9.89685 13.2923 10.0259 13.292H11.8039C12.6259 13.292 13.2919 12.626 13.2919 11.804V10.026C13.2919 9.89604 13.3439 9.77304 13.4349 9.68104L14.5649 8.55204C14.8439 8.273 15.0006 7.8946 15.0006 7.50004C15.0006 7.10548 14.8439 6.72708 14.5649 6.44804L13.4349 5.31804C13.3436 5.2268 13.2922 5.10311 13.2919 4.97404V3.19604C13.2919 2.37404 12.6259 1.70804 11.8039 1.70804H10.0259C9.89651 1.708 9.77241 1.65657 9.68092 1.56504L8.55192 0.43504C8.27288 0.156093 7.89447 -0.000610352 7.49992 -0.000610352C7.10536 -0.000610352 6.72696 0.156093 6.44792 0.43504V0.43604ZM4.64592 9.64604L9.64592 4.64604L10.3539 5.35404L5.35392 10.354L4.64592 9.64604ZM4.99992 5.00004V6.00004H5.99992V5.00004H4.99992ZM8.99992 10H9.99992V9.00004H8.99992V10Z" fill="#D45858"/>
</svg>
