<svg width="80" height="80" viewBox="0 0 80 80" fill="none" xmlns="http://www.w3.org/2000/svg">
<circle cx="40" cy="40" r="40" fill="#FAFCFF"/>
<circle cx="40" cy="40" r="32" fill="#27AE60"/>
<path d="M53.821 33.0194C54.7156 32.1438 54.7156 30.7039 53.821 29.8283C52.9534 28.9792 51.5664 28.9788 50.6984 29.8275L33.9498 46.2047C33.7885 46.3624 33.5308 46.3625 33.3695 46.2049L28.0381 40.9996C27.1697 40.1518 25.7832 40.1526 24.9159 41.0015C24.021 41.8774 24.021 43.3177 24.9159 44.1936L32.4826 51.5995C33.1369 52.2399 34.1831 52.2399 34.8374 51.5995L53.821 33.0194Z" fill="#FDFDFD" stroke="#FCFCFC"/>
<path d="M39.987 43C39.7585 43 39.5649 43.0286 39.406 43.0859C39.2471 43.145 39.1117 43.2207 39 43.313L39.3724 43.5928C39.5487 43.4451 39.766 43.3712 40.0242 43.3712C40.1633 43.3712 40.2663 43.3924 40.3333 43.4349C40.4004 43.4774 40.4339 43.5337 40.4339 43.6039C40.4339 43.6574 40.414 43.7018 40.3743 43.7368C40.3346 43.7738 40.2539 43.7987 40.1322 43.8116L39.8752 43.8366C39.5996 43.8624 39.3973 43.9243 39.2682 44.0222C39.1415 44.12 39.0782 44.2502 39.0782 44.4127C39.0782 44.4995 39.1006 44.5789 39.1453 44.651C39.1899 44.723 39.2533 44.7849 39.3352 44.8366C39.4196 44.8883 39.5214 44.928 39.6406 44.9557C39.7623 44.9852 39.9001 45 40.054 45C40.2502 45 40.4227 44.9769 40.5717 44.9307C40.7207 44.8846 40.8485 44.8172 40.9553 44.7285L40.5791 44.446C40.5171 44.4995 40.4413 44.5429 40.352 44.5762C40.2651 44.6113 40.1546 44.6288 40.0205 44.6288C39.8939 44.6288 39.7995 44.6122 39.7374 44.5789C39.6754 44.5457 39.6443 44.4995 39.6443 44.4404C39.6443 44.374 39.6679 44.3259 39.7151 44.2964C39.7647 44.2669 39.8442 44.2456 39.9534 44.2327L40.2104 44.2022C40.4786 44.1708 40.6772 44.109 40.8063 44.0166C40.9354 43.9261 41 43.7969 41 43.6288C41 43.5365 40.9777 43.4515 40.933 43.374C40.8883 43.2964 40.8225 43.2299 40.7356 43.1745C40.6511 43.1191 40.5456 43.0757 40.419 43.0443C40.2924 43.0148 40.1484 43 39.987 43Z" fill="white"/>
</svg>
