<svg width="19" height="18" viewBox="0 0 19 18" fill="none" xmlns="http://www.w3.org/2000/svg">
<path d="M18.5 16.8234C18.5 16.9639 18.4209 17.0927 18.2627 17.2098C18.1045 17.3268 17.8613 17.4234 17.5332 17.4995C17.2051 17.5756 16.8682 17.6459 16.5225 17.7102C16.1768 17.7746 15.7344 17.8244 15.1953 17.8595C14.6562 17.8946 14.1875 17.921 13.7891 17.9385C13.3906 17.9561 12.8779 17.9707 12.251 17.9824C11.624 17.9941 11.1494 18 10.8271 18H8.17285L6.74902 17.9824L5.21094 17.9385L3.80469 17.8595L2.47754 17.7102L1.4668 17.4995L0.737305 17.2098L0.5 16.8234C0.523438 15.7932 1.16797 14.8829 2.43359 14.0927C3.69922 13.3024 5.30469 12.7785 7.25 12.521V11.9415C6.64062 11.6722 6.11328 11.2917 5.66797 10.8C5.22266 10.3083 4.87109 9.73171 4.61328 9.07024C4.35547 8.40878 4.16797 7.70049 4.05078 6.94537C3.93359 6.19024 3.875 5.37366 3.875 4.49561C3.875 3.74634 4.02148 3.07902 4.31445 2.49366C4.60742 1.90829 5.01172 1.43707 5.52734 1.08C6.04297 0.722927 6.63477 0.453659 7.30273 0.272195C7.9707 0.0907317 8.70312 0 9.5 0C10.2969 0 11.0293 0.0907317 11.6973 0.272195C12.3652 0.453659 12.957 0.722927 13.4727 1.08C13.9883 1.43707 14.3926 1.90829 14.6855 2.49366C14.9785 3.07902 15.125 3.74634 15.125 4.49561C15.125 8.59317 14 11.0868 11.75 11.9766V12.521C13.6953 12.7785 15.3008 13.3024 16.5664 14.0927C17.832 14.8829 18.4766 15.7932 18.5 16.8234Z" fill="black" fill-opacity="0.3"/>
</svg>
